# xmcd
# 
# Track frame offsets:
#     150
#     18985
#     37272
#     49987
#     63687
#     82112
#     98275
#     112695
#     127077
#     143635
#     155697
#     172012
#     190645
#     204435
#     219255
#     236517
#     252130
#     268187
#     282765
#     295670
# 
# Disc length: 4140
# 
# Revision: 6
# Processed by: cddbd v1.5.2PL0 Copyright (c) Steve Scherf et al.
# Submitted via: fre:ac v1.0.17
# 
DISCID=20102a14
DTITLE=Don Williams - Anthology - Disc 2
DYEAR=2000
DGENRE=Country
TTITLE0=Good Ole Boys Like Me
TTITLE1=I Believe In You
TTITLE2=Falling Again
TTITLE3=Miracles
TTITLE4=Lord I Hope This Day Is Good
TTITLE5=If I Needed You
TTITLE6=Listen To The Radio
TTITLE7=If Hollywood Don't Need You
TTITLE8=Love Is On A Roll
TTITLE9=Nobody But You
TTITLE10=That's The Thing About Love
TTITLE11=Maggie's Dream
TTITLE12=Walkin  A Broken Heart
TTITLE13=We've Got A Good Fire Going
TTITLE14=Heartbeat In The Darkness
TTITLE15=Then It's Love
TTITLE16=I've Been Loved By The Best
TTITLE17=Back in My Younger Days
TTITLE18=True Love
TTITLE19=Just As Long As I Have You
EXTD=YEAR: 2000
EXTT0=
EXTT1=
EXTT2=
EXTT3=
EXTT4=
EXTT5=
EXTT6=
EXTT7=
EXTT8=
EXTT9=
EXTT10=
EXTT11=
EXTT12=
EXTT13=
EXTT14=
EXTT15=
EXTT16=
EXTT17=
EXTT18=
EXTT19=
PLAYORDER=
